<?xml version="1.0" encoding="UTF-8"?>
<svg xmlns="http://www.w3.org/2000/svg" xmlns:xlink="http://www.w3.org/1999/xlink" width="2400" height="2400" viewBox="0 0 2400 2400">
<rect x="-240" y="-240" width="2880" height="2880" fill="rgb(98.046875%, 89.84375%, 75.193787%)" fill-opacity="1"/>
<path fill-rule="evenodd" fill="rgb(97.264099%, 67.381287%, 29.80957%)" fill-opacity="1" d="M 776.484375 1176.039062 C 746.933594 1226.828125 709.375 1291.378906 713.488281 1334.289062 C 716.523438 1365.941406 746.878906 1386.738281 831.832031 1380.949219 C 831.078125 1349.421875 839.769531 1314.410156 860.035156 1275.910156 C 869.929688 1257.109375 877.015625 1240.101562 882.050781 1225 C 888.1875 1206.589844 891.097656 1191.488281 892.289062 1179.679688 C 893.976562 1162.941406 891.976562 1144.328125 889.929688 1125.261719 C 887.863281 1106.039062 885.753906 1086.390625 887.019531 1065.628906 C 893.796875 954.671875 960.050781 879.988281 1047.351562 841.199219 C 978.308594 838.75 867.21875 862.800781 817.246094 1027.648438 C 811.675781 1046.039062 809.234375 1062.929688 806.855469 1079.371094 C 802.476562 1109.640625 798.300781 1138.550781 776.632812 1175.789062 L 776.484375 1176.039062 "/>
<path fill-rule="evenodd" fill="rgb(97.264099%, 67.381287%, 29.80957%)" fill-opacity="1" d="M 1508.550781 1185.140625 C 1509.53125 1196.980469 1512.179688 1212.128906 1517.988281 1230.628906 C 1522.679688 1245.589844 1529.46875 1262.671875 1539.140625 1281.839844 C 1558.691406 1320.628906 1566.769531 1355.738281 1565.511719 1387.210938 C 1651.578125 1394.921875 1682.660156 1374.601562 1686.28125 1342.808594 C 1691.160156 1299.910156 1654.761719 1234.738281 1626.121094 1183.480469 L 1625.980469 1183.230469 C 1604.988281 1145.660156 1601.320312 1116.640625 1597.46875 1086.269531 C 1595.398438 1069.898438 1593.269531 1053.089844 1587.96875 1034.429688 C 1540.511719 867.339844 1428.421875 842.28125 1359.480469 843.96875 C 1446.089844 884.300781 1511.019531 960.140625 1515.839844 1071.21875 C 1516.730469 1091.890625 1514.269531 1111.550781 1511.859375 1130.769531 C 1509.480469 1149.78125 1507.160156 1168.339844 1508.550781 1185.140625 "/>
<path fill-rule="evenodd" fill="rgb(100%, 91.796875%, 76.171875%)" fill-opacity="1" d="M 1485.320312 1290.160156 C 1464.980469 1267.691406 1437.710938 1251.339844 1396.328125 1242.230469 C 1391.421875 1241.140625 1387.089844 1240.230469 1383.039062 1239.378906 C 1348.589844 1232.128906 1330.191406 1228.261719 1302.648438 1200.601562 C 1291.578125 1189.488281 1282.269531 1178.609375 1273.699219 1168.578125 C 1251.640625 1142.800781 1235.109375 1123.488281 1200.351562 1121.550781 C 1166.238281 1123.140625 1149.449219 1142.078125 1127.089844 1167.300781 C 1118.421875 1177.078125 1109.011719 1187.699219 1097.621094 1198.75 C 1069.539062 1225.980469 1051.101562 1229.519531 1016.589844 1236.148438 C 1011.921875 1237.039062 1006.941406 1238 1003.171875 1238.761719 C 961.605469 1247.160156 934.054688 1263 913.351562 1285.078125 C 893.066406 1306.710938 878.566406 1335.070312 863.824219 1368.511719 C 860.988281 1429.808594 899.710938 1476.269531 959.382812 1507.683594 C 1023.078125 1541.21875 1109.890625 1558.46875 1197.128906 1559.238281 C 1284.28125 1560.007812 1371.339844 1544.277344 1435.648438 1511.855469 C 1495.609375 1481.628906 1535.070312 1436.121094 1533.679688 1375.199219 C 1519.421875 1341.171875 1505.371094 1312.289062 1485.320312 1290.160156 "/>
<path fill-rule="evenodd" fill="rgb(97.264099%, 67.381287%, 29.80957%)" fill-opacity="1" d="M 1016.589844 1236.148438 C 1051.101562 1229.519531 1069.539062 1225.980469 1097.621094 1198.75 C 1109.011719 1187.699219 1118.421875 1177.078125 1127.089844 1167.300781 C 1149.449219 1142.078125 1166.238281 1123.140625 1200.351562 1121.550781 C 1235.109375 1123.488281 1251.640625 1142.800781 1273.699219 1168.578125 C 1282.269531 1178.609375 1291.578125 1189.488281 1302.648438 1200.601562 C 1330.191406 1228.261719 1348.589844 1232.128906 1383.039062 1239.378906 C 1387.089844 1240.230469 1391.421875 1241.140625 1396.328125 1242.230469 C 1437.710938 1251.339844 1464.980469 1267.691406 1485.320312 1290.160156 C 1505.371094 1312.289062 1519.421875 1341.171875 1533.679688 1375.199219 C 1533.128906 1351.109375 1526.191406 1324.609375 1511.609375 1295.691406 C 1501.171875 1274.980469 1493.769531 1256.308594 1488.589844 1239.800781 C 1482.078125 1219.058594 1479.070312 1201.578125 1477.921875 1187.660156 C 1476.230469 1167.320312 1478.730469 1147.359375 1481.289062 1126.898438 C 1483.550781 1108.871094 1485.859375 1090.421875 1485.089844 1072.488281 C 1480.539062 967.839844 1415 898.460938 1330.121094 864.78125 C 1290.761719 849.160156 1247.160156 841.140625 1203.390625 840.75 C 1159.699219 840.359375 1116 847.621094 1076.371094 862.550781 C 990.886719 894.738281 924.121094 962.980469 917.738281 1067.558594 C 916.648438 1085.359375 918.644531 1103.890625 920.589844 1122.011719 C 922.789062 1142.488281 924.9375 1162.46875 922.886719 1182.808594 C 921.480469 1196.71875 918.171875 1214.140625 911.304688 1234.75 C 905.90625 1250.949219 898.183594 1269.429688 887.269531 1290.160156 C 872.339844 1318.519531 864.933594 1344.640625 863.824219 1368.511719 C 878.566406 1335.070312 893.066406 1306.710938 913.351562 1285.078125 C 934.054688 1263 961.605469 1247.160156 1003.171875 1238.761719 C 1006.941406 1238 1011.921875 1237.039062 1016.589844 1236.148438 "/>
<path fill-rule="evenodd" fill="rgb(96.09375%, 78.125%, 55.664062%)" fill-opacity="1" d="M 1203.71875 869.96875 C 1247.488281 870.351562 1291.078125 878.371094 1330.441406 893.988281 C 1412.800781 926.671875 1476.949219 992.960938 1484.839844 1092.46875 C 1485.238281 1085.769531 1485.371094 1079.089844 1485.089844 1072.488281 C 1480.539062 967.839844 1423.429688 887.679688 1338.550781 853.988281 C 1299.191406 838.371094 1250 827.140625 1206.230469 826.75 C 1162.539062 826.359375 1114.441406 834.808594 1074.800781 849.738281 C 989.320312 881.929688 924.121094 962.980469 917.738281 1067.558594 C 917.167969 1076.871094 917.441406 1086.390625 918.113281 1095.941406 C 924.800781 991.828125 991.4375 923.871094 1076.691406 891.761719 C 1116.328125 876.839844 1160.019531 869.578125 1203.71875 869.96875 "/>
<path fill-rule="evenodd" fill="rgb(96.09375%, 78.125%, 55.664062%)" fill-opacity="1" d="M 738.703125 1333.148438 C 734.589844 1290.25 772.148438 1225.691406 801.699219 1174.910156 L 801.847656 1174.648438 C 823.515625 1137.421875 827.691406 1108.511719 832.070312 1078.230469 C 834.449219 1061.789062 836.890625 1044.898438 842.460938 1026.519531 C 885.128906 885.761719 972.359375 847.648438 1039.929688 841.050781 C 970.578125 840.609375 857.964844 867.070312 809.746094 1026.128906 C 804.175781 1044.519531 800.734375 1061.199219 798.355469 1077.648438 C 793.976562 1107.921875 793.851562 1137.390625 772.183594 1174.628906 C 749.421875 1213.761719 700.882812 1290.421875 705.277344 1336.261719 C 708.3125 1367.921875 746.878906 1386.738281 831.832031 1380.949219 C 831.832031 1380.890625 831.828125 1380.828125 831.828125 1380.78125 C 765.964844 1381.078125 741.414062 1361.449219 738.703125 1333.148438 "/>
<path fill-rule="evenodd" fill="rgb(96.09375%, 78.125%, 55.664062%)" fill-opacity="1" d="M 1572.660156 1085.398438 C 1576.511719 1115.78125 1580.179688 1144.789062 1601.171875 1182.371094 L 1601.308594 1182.609375 C 1629.949219 1233.878906 1666.351562 1299.039062 1661.46875 1341.949219 C 1658.390625 1369.050781 1635.328125 1387.820312 1575.238281 1387.980469 C 1653.941406 1393.328125 1697.199219 1379.410156 1700.671875 1348.851562 C 1705.898438 1302.890625 1659.871094 1221.171875 1637.789062 1181.460938 C 1616.800781 1143.890625 1616.710938 1122.890625 1612.859375 1092.511719 C 1610.789062 1076.140625 1613.089844 1047.738281 1607.789062 1029.078125 C 1560.910156 864.019531 1431.140625 842.910156 1362.019531 843.921875 C 1430.339844 849.78125 1521.570312 887.128906 1563.160156 1033.558594 C 1568.460938 1052.230469 1570.589844 1069.03125 1572.660156 1085.398438 "/>
<path fill-rule="evenodd" fill="rgb(92.1875%, 80.46875%, 58.789062%)" fill-opacity="1" d="M 1437.320312 1483.046875 C 1373.019531 1515.464844 1285.960938 1531.195312 1198.808594 1530.429688 C 1111.570312 1529.660156 1024.75 1512.40625 961.058594 1478.871094 C 909.074219 1451.507812 872.988281 1412.722656 866.429688 1362.648438 C 865.5625 1364.589844 864.695312 1366.539062 863.824219 1368.511719 C 860.988281 1429.808594 899.710938 1476.269531 959.382812 1507.683594 C 1023.078125 1541.21875 1109.890625 1558.46875 1197.128906 1559.238281 C 1284.28125 1560.007812 1371.339844 1544.277344 1435.648438 1511.855469 C 1495.609375 1481.628906 1535.070312 1436.125 1533.679688 1375.199219 C 1533.480469 1374.730469 1533.289062 1374.269531 1533.101562 1373.808594 C 1523.921875 1421.15625 1487.921875 1457.539062 1437.320312 1483.046875 "/>
<path fill-rule="nonzero" fill="rgb(56.054688%, 30.979919%, 0%)" fill-opacity="1" d="M 860.035156 1275.910156 C 869.929688 1257.109375 877.015625 1240.101562 882.050781 1225 C 888.1875 1206.589844 891.097656 1191.488281 892.289062 1179.679688 C 893.976562 1162.941406 891.976562 1144.328125 889.929688 1125.261719 C 887.863281 1106.039062 885.753906 1086.390625 887.019531 1065.628906 C 894.257812 947.109375 969.355469 869.980469 1065.480469 833.78125 C 1108.789062 817.46875 1156.339844 809.539062 1203.738281 809.960938 C 1251.058594 810.371094 1298.429688 819.140625 1341.449219 836.210938 C 1436.941406 874.101562 1510.691406 952.558594 1515.839844 1071.21875 C 1516.730469 1091.890625 1514.269531 1111.550781 1511.859375 1130.769531 C 1509.480469 1149.78125 1507.160156 1168.339844 1508.550781 1185.140625 C 1509.53125 1196.980469 1512.179688 1212.128906 1517.988281 1230.628906 C 1522.679688 1245.589844 1529.46875 1262.671875 1539.140625 1281.839844 C 1600.570312 1403.691406 1548.78125 1489.324219 1449.488281 1539.378906 C 1380.769531 1574.023438 1288.578125 1590.839844 1196.789062 1590.03125 C 1105.089844 1589.222656 1013.25 1570.78125 945.128906 1534.917969 C 846.753906 1483.121094 796.488281 1396.621094 860.035156 1275.910156 Z M 911.304688 1234.75 C 905.90625 1250.949219 898.183594 1269.429688 887.269531 1290.160156 C 834.003906 1391.339844 876.472656 1464.035156 959.382812 1507.683594 C 1023.078125 1541.21875 1109.890625 1558.46875 1197.128906 1559.238281 C 1284.28125 1560.007812 1371.339844 1544.277344 1435.648438 1511.855469 C 1519.308594 1469.675781 1563.070312 1397.761719 1511.609375 1295.691406 C 1501.171875 1274.980469 1493.769531 1256.308594 1488.589844 1239.800781 C 1482.078125 1219.058594 1479.070312 1201.578125 1477.921875 1187.660156 C 1476.230469 1167.320312 1478.730469 1147.359375 1481.289062 1126.898438 C 1483.550781 1108.871094 1485.859375 1090.421875 1485.089844 1072.488281 C 1480.539062 967.839844 1415 898.460938 1330.121094 864.78125 C 1290.761719 849.160156 1247.160156 841.140625 1203.390625 840.75 C 1159.699219 840.359375 1116 847.621094 1076.371094 862.550781 C 990.886719 894.738281 924.121094 962.980469 917.738281 1067.558594 C 916.648438 1085.359375 918.644531 1103.890625 920.589844 1122.011719 C 922.789062 1142.488281 924.9375 1162.46875 922.886719 1182.808594 C 921.480469 1196.71875 918.171875 1214.140625 911.304688 1234.75 "/>
<path fill-rule="evenodd" fill="rgb(56.054688%, 30.979919%, 0%)" fill-opacity="1" d="M 1139.699219 1257.550781 C 1164.011719 1231.121094 1242.011719 1227.761719 1268.5 1252.011719 C 1294.480469 1275.789062 1254.179688 1318.539062 1233 1329.53125 C 1218.179688 1337.21875 1197.148438 1338.128906 1181.730469 1331.730469 C 1159.679688 1322.601562 1115.859375 1283.46875 1139.699219 1257.550781 "/>
<path fill-rule="nonzero" fill="rgb(56.054688%, 30.979919%, 0%)" fill-opacity="1" d="M 1187.921875 1282.730469 C 1187.410156 1273.390625 1194.570312 1265.390625 1203.921875 1264.878906 C 1213.261719 1264.371094 1221.261719 1271.53125 1221.769531 1280.878906 L 1225.300781 1342 C 1225.808594 1351.351562 1218.648438 1359.339844 1209.300781 1359.851562 C 1199.949219 1360.359375 1191.960938 1353.199219 1191.449219 1343.859375 L 1187.921875 1282.730469 "/>
<path fill-rule="nonzero" fill="rgb(56.054688%, 30.979919%, 0%)" fill-opacity="1" d="M 1321.058594 1299.339844 C 1333.898438 1328.328125 1329.089844 1355.609375 1314.730469 1370.148438 C 1301.078125 1383.96875 1282.421875 1392.808594 1261.691406 1393.699219 C 1249.039062 1394.25 1236.621094 1391.738281 1225.378906 1386.621094 C 1220.171875 1384.238281 1215.199219 1381.28125 1210.570312 1377.78125 C 1206.261719 1381.671875 1201.570312 1385.039062 1196.578125 1387.859375 C 1185.820312 1393.929688 1173.648438 1397.488281 1161 1398.039062 C 1140.28125 1398.929688 1120.929688 1391.71875 1106.140625 1379.121094 C 1090.578125 1365.859375 1076.691406 1339.710938 1093.75 1309.121094 C 1099.390625 1336.441406 1120.398438 1365.421875 1159.539062 1364.039062 C 1166.800781 1363.730469 1173.75 1361.699219 1179.871094 1358.238281 C 1186 1354.789062 1191.300781 1349.988281 1195.238281 1344.148438 C 1196.21875 1342.609375 1197.460938 1341.210938 1198.96875 1340.011719 C 1206.289062 1334.191406 1216.941406 1335.390625 1222.769531 1342.710938 C 1227.21875 1348.308594 1232.980469 1352.71875 1239.480469 1355.679688 C 1245.878906 1358.589844 1252.96875 1360.019531 1260.230469 1359.710938 C 1293.199219 1358.289062 1312.371094 1326.980469 1321.058594 1299.339844 "/>
<path fill-rule="nonzero" fill="rgb(56.054688%, 30.979919%, 0%)" fill-opacity="1" d="M 1123.390625 1390.078125 C 1119.070312 1379.429688 1122.609375 1369.550781 1133.25 1365.230469 C 1143.898438 1360.910156 1156.03125 1366.03125 1160.351562 1376.679688 C 1160.5 1377.039062 1214.941406 1496.742188 1261.890625 1370.058594 C 1265.921875 1359.328125 1277.890625 1353.898438 1288.628906 1357.929688 C 1299.359375 1361.960938 1301.730469 1372.808594 1297.699219 1383.539062 C 1284.261719 1410.476562 1270.710938 1428.984375 1257.101562 1440.675781 C 1234.488281 1460.089844 1194.648438 1459.53125 1173.238281 1445.058594 C 1143.570312 1424.984375 1123.511719 1390.371094 1123.390625 1390.078125 "/>
<path fill-rule="nonzero" fill="rgb(98.046875%, 36.083984%, 59.568787%)" fill-opacity="1" d="M 1181.320312 1409.492188 C 1197.300781 1427.921875 1220.429688 1441.128906 1243.671875 1407.273438 C 1257.238281 1411.960938 1266.601562 1420.058594 1268.101562 1429.695312 C 1264.441406 1433.871094 1260.769531 1437.519531 1257.101562 1440.675781 C 1234.488281 1460.089844 1194.648438 1459.53125 1173.25 1445.058594 C 1167.78125 1441.363281 1162.640625 1437.175781 1157.898438 1432.800781 C 1159.410156 1423.429688 1168.300781 1414.992188 1181.320312 1409.492188 "/>
<path fill-rule="evenodd" fill="rgb(56.054688%, 30.979919%, 0%)" fill-opacity="1" d="M 1193.191406 1384.558594 C 1183.851562 1389.828125 1173.640625 1393.550781 1162.96875 1395.488281 C 1183.238281 1425.960938 1222.621094 1465.46875 1260.410156 1391.441406 C 1249.230469 1390.519531 1238.359375 1387.648438 1228.269531 1383.050781 C 1221.921875 1380.160156 1215.871094 1376.550781 1210.238281 1372.289062 C 1204.988281 1377.019531 1199.269531 1381.128906 1193.191406 1384.558594 "/>
<path fill-rule="evenodd" fill="rgb(98.046875%, 36.083984%, 59.568787%)" fill-opacity="1" d="M 1175.730469 1412.308594 C 1195.03125 1436.839844 1222.351562 1453.625 1249.570312 1409.867188 C 1239.449219 1404.484375 1226.109375 1401.496094 1211.621094 1402.121094 C 1197.738281 1402.71875 1185.199219 1406.515625 1175.730469 1412.308594 "/>
<path fill-rule="evenodd" fill="rgb(70.896912%, 41.967773%, 6.272888%)" fill-opacity="1" d="M 1203.828125 1248.390625 C 1230.511719 1247.238281 1252.511719 1255.058594 1252.980469 1265.851562 C 1253.441406 1276.640625 1232.191406 1286.320312 1205.511719 1287.460938 C 1178.828125 1288.609375 1156.820312 1280.800781 1156.359375 1270.011719 C 1155.890625 1259.210938 1177.140625 1249.539062 1203.828125 1248.390625 "/>
<path fill-rule="nonzero" fill="rgb(56.054688%, 30.979919%, 0%)" fill-opacity="1" d="M 979.402344 1160.929688 C 967.320312 1071.738281 1089.058594 1048.238281 1112.261719 1139.53125 C 1071.929688 1093.378906 1000.5 1108.539062 979.402344 1160.929688 "/>
<path fill-rule="nonzero" fill="rgb(56.054688%, 30.979919%, 0%)" fill-opacity="1" d="M 1429.660156 1147.640625 C 1430.390625 1057.640625 1306.671875 1049.691406 1295.171875 1143.171875 C 1329.351562 1092.308594 1402.121094 1098.328125 1429.660156 1147.640625 "/>
<path fill-rule="nonzero" fill="rgb(56.054688%, 30.979919%, 0%)" fill-opacity="1" d="M 1293.121094 822.730469 C 1293.820312 822.519531 1538.179688 746.480469 1617.578125 1026.050781 C 1623.46875 1046.78125 1625.761719 1064.878906 1627.988281 1082.488281 C 1631.441406 1109.769531 1634.738281 1135.828125 1652.871094 1168.28125 L 1653.011719 1168.519531 C 1683.78125 1223.621094 1722.910156 1293.660156 1716.921875 1346.320312 C 1711.121094 1397.320312 1668.21875 1430.078125 1549.480469 1416.578125 L 1552.988281 1385.929688 C 1648.589844 1396.800781 1682.488281 1376.101562 1686.28125 1342.808594 C 1691.160156 1299.910156 1654.761719 1234.738281 1626.121094 1183.480469 L 1625.980469 1183.230469 C 1604.988281 1145.660156 1601.320312 1116.640625 1597.46875 1086.269531 C 1595.398438 1069.898438 1593.269531 1053.089844 1587.96875 1034.429688 C 1517.171875 785.148438 1302.519531 851.988281 1301.898438 852.171875 L 1293.121094 822.730469 "/>
<path fill-rule="nonzero" fill="rgb(56.054688%, 30.979919%, 0%)" fill-opacity="1" d="M 1106.511719 850.488281 C 1105.890625 850.289062 892.417969 779.671875 817.246094 1027.648438 C 811.675781 1046.039062 809.234375 1062.929688 806.855469 1079.371094 C 802.476562 1109.640625 798.300781 1138.550781 776.632812 1175.789062 L 776.484375 1176.039062 C 746.933594 1226.828125 709.375 1291.378906 713.488281 1334.289062 C 716.6875 1367.648438 750.242188 1388.960938 846.097656 1379.769531 L 848.992188 1410.359375 C 730.09375 1421.761719 687.796875 1388.269531 682.898438 1337.179688 C 677.835938 1284.359375 718.148438 1215.070312 749.867188 1160.558594 L 750.015625 1160.308594 C 768.699219 1128.199219 772.464844 1102.171875 776.40625 1074.921875 C 778.929688 1057.460938 781.523438 1039.539062 787.820312 1018.738281 C 872.136719 740.589844 1115.078125 820.910156 1115.78125 821.140625 L 1106.511719 850.488281 "/>
</svg>
